<svg xmlns="http://www.w3.org/2000/svg" width="390" height="844" viewBox="0 0 390 844">
<defs>
 <linearGradient id="violet" x1="0" y1="0" x2="1" y2="1"><stop stop-color="#c8b6ff"/><stop offset=".45" stop-color="#9578f1"/><stop offset="1" stop-color="#6047ca"/></linearGradient>
 <radialGradient id="halo"><stop stop-color="#a98cff" stop-opacity=".22"/><stop offset="1" stop-color="#a98cff" stop-opacity="0"/></radialGradient>
</defs>
<circle cx="312" cy="150" r="170" fill="url(#halo)"/>
<g transform="translate(296 155)">
 <path d="M-88 40Q0-22 88 40" fill="none" stroke="#b79cff" stroke-opacity=".22" stroke-width="11" stroke-linecap="round"/>
 <circle cx="-42" cy="-16" r="49" fill="#9d82ef" stroke="#eae3ff" stroke-opacity=".48" stroke-width="4"/>
 <circle cx="42" cy="-16" r="49" fill="#6e55d9" stroke="#eae3ff" stroke-opacity=".48" stroke-width="4"/>
 <circle cx="-42" cy="-25" r="21" fill="#ffe2a8"/><circle cx="42" cy="-25" r="21" fill="#ffd4c2"/>
 <path d="M-73 26Q-42-1-11 26M11 26Q42-1 73 26" fill="none" stroke="#fff" stroke-opacity=".78" stroke-width="14" stroke-linecap="round"/>
 <path d="M-55 65H55L42 99H-42Z" fill="url(#violet)" stroke="#d5c8ff" stroke-opacity=".45" stroke-width="2"/>
 <path d="M0 61l8 13 15 2-11 10 3 16-15-8-15 8 3-16-11-10 15-2Z" fill="#fff1a0"/>
</g>
<g transform="translate(72 694)" opacity=".68">
 <path d="M-42 0Q0-39 42 0Q0 39-42 0Z" fill="#8a73e8" opacity=".24" stroke="#baa8ff" stroke-width="4"/>
 <circle cx="-18" r="10" fill="#ffe2a8"/><circle cx="18" r="10" fill="#ffd4c2"/>
 <path d="M-28 19Q-18 9-8 19M8 19Q18 9 28 19" fill="none" stroke="#fff" stroke-opacity=".72" stroke-width="6" stroke-linecap="round"/>
</g>
<g fill="#d3c7ff" opacity=".55"><circle cx="144" cy="731" r="4"/><circle cx="183" cy="677" r="5"/><circle cx="214" cy="742" r="3"/></g>
<path d="M109 724Q168 679 222 717" fill="none" stroke="#9c82ef" stroke-opacity=".30" stroke-width="6" stroke-dasharray="4 12" stroke-linecap="round"/>
</svg>