<svg xmlns="http://www.w3.org/2000/svg" width="390" height="844" viewBox="0 0 390 844"><defs><linearGradient id="a" x1="0" y1="0" x2="1" y2="1"><stop stop-color="#a88cff"/><stop offset="1" stop-color="#6d55dd"/></linearGradient></defs><circle cx="330" cy="132" r="132" fill="#a88cff" opacity=".065"/><circle cx="44" cy="710" r="150" fill="#6d55dd" opacity=".035"/><g transform="translate(290 155)"><circle cx="-39" cy="-13" r="48" fill="#a88cff" stroke="#fff" stroke-opacity=".42" stroke-width="4"/><circle cx="39" cy="-13" r="48" fill="#6d55dd" stroke="#fff" stroke-opacity=".42" stroke-width="4"/><circle cx="-39" cy="-22" r="20" fill="#ffe0a2"/><circle cx="39" cy="-22" r="20" fill="#ffd0ba"/><path d="M-75 25Q-39-4-3 25M3 25Q39-4 75 25" fill="none" stroke="#fff" stroke-opacity=".80" stroke-width="14" stroke-linecap="round"/><path d="M-51 67H51L38 98H-38Z" fill="url(#a)"/><path d="M0 66l8 12 15 2-11 10 3 15-15-7-15 7 3-15-11-10 15-2z" fill="#fff4a6"/></g></svg>