<svg xmlns="http://www.w3.org/2000/svg" width="390" height="844" viewBox="0 0 390 844"><defs><linearGradient id="a" x1="0" y1="0" x2="1" y2="1"><stop stop-color="#ffad62"/><stop offset="1" stop-color="#f16b51"/></linearGradient></defs><circle cx="330" cy="132" r="132" fill="#ffad62" opacity=".065"/><circle cx="44" cy="710" r="150" fill="#f16b51" opacity=".035"/><g transform="translate(292 159)"><rect x="-63" y="-38" width="126" height="95" rx="22" fill="url(#a)" stroke="#ffe1a3" stroke-width="5"/><path d="M-63-4H63M0-38V57" stroke="#fff" stroke-opacity=".30" stroke-width="5"/><path d="M-24-52C-24-87-3-93 0-59 3-93 24-87 24-52" fill="none" stroke="#fff0ae" stroke-width="13" stroke-linecap="round"/><circle cx="0" cy="9" r="15" fill="#fff6bd"/><path d="M0-1v21M-10 9h20" stroke="#d97c2d" stroke-width="5" stroke-linecap="round"/></g><path d="M72 669C128 610 181 645 222 588s80-42 108-95" fill="none" stroke="#ffad62" stroke-opacity=".24" stroke-width="8" stroke-linecap="round"/></svg>