<svg xmlns="http://www.w3.org/2000/svg" width="256" height="256" viewBox="0 0 256 256"><defs><radialGradient id="skin" cx=".30" cy=".15" r=".9"><stop stop-color="#c1ffe4"/><stop offset=".48" stop-color="#62dfb2"/><stop offset="1" stop-color="#26a982"/></radialGradient><linearGradient id="suit" x1="0" y1="0" x2="1" y2="1"><stop stop-color="#614ed8"/><stop offset="1" stop-color="#362b8b"/></linearGradient></defs><ellipse cx="128" cy="230" rx="73" ry="14" fill="#061721" opacity=".28"/><path d="M87 54L68 17M169 54l19-37" stroke="#4bd3a5" stroke-width="7" stroke-linecap="round"/><circle cx="64" cy="11" r="11" fill="#ffd65c" stroke="#fff2a8" stroke-width="3"/><circle cx="192" cy="11" r="11" fill="#ff6ac7" stroke="#ffd1ef" stroke-width="3"/><ellipse cx="128" cy="157" rx="66" ry="68" fill="url(#suit)" stroke="#9e8cff" stroke-opacity=".44" stroke-width="4"/><ellipse cx="128" cy="91" rx="66" ry="59" fill="url(#skin)" stroke="#d5ffee" stroke-opacity=".44" stroke-width="4"/><ellipse cx="101" cy="91" rx="15" ry="22" fill="#1e3650"/><ellipse cx="155" cy="91" rx="15" ry="22" fill="#1e3650"/><ellipse cx="97" cy="85" rx="5" ry="8" fill="#b9fbff"/><ellipse cx="151" cy="85" rx="5" ry="8" fill="#b9fbff"/><path d="M106 126Q128 141 150 126" fill="none" stroke="#214f4d" stroke-width="5" stroke-linecap="round"/><ellipse cx="81" cy="125" rx="14" ry="8" fill="#ff8fa0" opacity=".48"/><ellipse cx="175" cy="125" rx="14" ry="8" fill="#ff8fa0" opacity=".48"/><path d="M86 58Q116 34 150 45" fill="none" stroke="#fff" stroke-opacity=".36" stroke-width="10" stroke-linecap="round"/><circle cx="128" cy="165" r="25" fill="#26346f" stroke="#8df5dd" stroke-width="5"/><path d="M112 165h32M128 149v32" stroke="#8df5dd" stroke-width="5" stroke-linecap="round"/><path d="M69 161Q43 176 57 199Q75 208 96 183" fill="#493ab2"/><path d="M187 161Q213 176 199 199Q181 208 160 183" fill="#493ab2"/><path d="M99 214v16M157 214v16" stroke="#2b2476" stroke-width="15" stroke-linecap="round"/></svg>