<svg xmlns="http://www.w3.org/2000/svg" width="256" height="256" viewBox="0 0 256 256"><defs><radialGradient id="body" cx=".30" cy=".18" r=".88"><stop stop-color="#fff" stop-opacity=".55"/><stop offset=".12" stop-color="#ffb15f"/><stop offset=".72" stop-color="#eb6e34"/><stop offset="1" stop-color="#eb6e34"/></radialGradient><linearGradient id="belly" x1="0" y1="0" x2="0" y2="1"><stop stop-color="#fff" stop-opacity=".72"/><stop offset="1" stop-color="#fff" stop-opacity=".18"/></linearGradient></defs><ellipse cx="128" cy="226" rx="78" ry="15" fill="#071723" opacity=".24"/><ellipse cx="128" cy="154" rx="72" ry="77" fill="url(#body)" stroke="#fff" stroke-opacity=".34" stroke-width="4"/><circle cx="128" cy="91" r="69" fill="url(#body)" stroke="#fff" stroke-opacity=".38" stroke-width="4"/><ellipse cx="77" cy="159" rx="24" ry="42" fill="#eb6e34" opacity=".96" transform="rotate(-18 77 159)"/><ellipse cx="179" cy="159" rx="24" ry="42" fill="#eb6e34" opacity=".96" transform="rotate(18 179 159)"/><ellipse cx="128" cy="168" rx="40" ry="44" fill="url(#belly)" opacity=".28"/><path d="M75 59L91 7l37 46z" fill="#f06f35" stroke="#fff0d7" stroke-width="4"/><path d="M181 59L165 7l-37 46z" fill="#f06f35" stroke="#fff0d7" stroke-width="4"/><ellipse cx="128" cy="119" rx="28" ry="20" fill="#fff0d9"/><path d="M119 113h18l-9 9z" fill="#3e2e31"/><ellipse cx="92" cy="118" rx="13" ry="8" fill="#ff8fa0" opacity=".68"/><ellipse cx="164" cy="118" rx="13" ry="8" fill="#ff8fa0" opacity=".68"/><circle cx="104" cy="92" r="10" fill="#173047"/><circle cx="152" cy="92" r="10" fill="#173047"/><circle cx="101" cy="88" r="3.4" fill="#fff"/><circle cx="149" cy="88" r="3.4" fill="#fff"/><path d="M104 59C118 42 142 41 157 56" fill="none" stroke="#fff" stroke-opacity=".40" stroke-width="10" stroke-linecap="round"/><ellipse cx="101" cy="212" rx="23" ry="10" fill="#ffb43b" opacity=".80"/><ellipse cx="155" cy="212" rx="23" ry="10" fill="#ffb43b" opacity=".80"/></svg>