<svg xmlns="http://www.w3.org/2000/svg" width="256" height="256" viewBox="0 0 256 256"><defs><radialGradient id="fur" cx=".30" cy=".16" r=".9"><stop stop-color="#f2c08d"/><stop offset=".55" stop-color="#b97243"/><stop offset="1" stop-color="#79462f"/></radialGradient><linearGradient id="m" x1="0" y1="0" x2="0" y2="1"><stop stop-color="#ffe3bd"/><stop offset="1" stop-color="#d69a68"/></linearGradient></defs><ellipse cx="128" cy="229" rx="75" ry="15" fill="#071620" opacity=".29"/><path d="M64 64Q33 64 39 119Q48 152 76 128L91 75Z" fill="#75442f" stroke="#a96b45" stroke-width="4"/><path d="M192 64Q223 64 217 119Q208 152 180 128L165 75Z" fill="#75442f" stroke="#a96b45" stroke-width="4"/><ellipse cx="128" cy="158" rx="68" ry="67" fill="url(#fur)" stroke="#f2c79a" stroke-opacity=".32" stroke-width="4"/><circle cx="128" cy="91" r="62" fill="url(#fur)" stroke="#f2c79a" stroke-opacity=".36" stroke-width="4"/><ellipse cx="128" cy="116" rx="39" ry="32" fill="url(#m)"/><ellipse cx="128" cy="108" rx="17" ry="12" fill="#352626"/><path d="M128 118v10M128 128Q113 140 100 129M128 128Q143 140 156 129" fill="none" stroke="#4e332d" stroke-width="4" stroke-linecap="round"/><circle cx="103" cy="85" r="10" fill="#1b3140"/><circle cx="153" cy="85" r="10" fill="#1b3140"/><circle cx="100" cy="81" r="3.3" fill="#fff"/><circle cx="150" cy="81" r="3.3" fill="#fff"/><path d="M92 58Q116 39 143 48" fill="none" stroke="#fff" stroke-opacity=".34" stroke-width="10" stroke-linecap="round"/><path d="M69 163Q43 178 58 201Q74 211 94 184" fill="#975b3a"/><path d="M187 163Q213 178 198 201Q182 211 162 184" fill="#975b3a"/><path d="M106 209Q105 226 87 225M150 209Q151 226 169 225" fill="none" stroke="#5f382b" stroke-width="11" stroke-linecap="round"/><path d="M183 190Q223 176 217 145" fill="none" stroke="#8d5438" stroke-width="12" stroke-linecap="round"/></svg>