<svg xmlns="http://www.w3.org/2000/svg" width="512" height="512" viewBox="0 0 512 512">
<defs>
  <linearGradient id="bg" x1="68" y1="34" x2="446" y2="482" gradientUnits="userSpaceOnUse">
    <stop offset="0" stop-color="#173BFF"/><stop offset=".48" stop-color="#0B66DB"/><stop offset="1" stop-color="#24106F"/>
  </linearGradient>
  <radialGradient id="glow" cx="50%" cy="30%" r="72%">
    <stop offset="0" stop-color="#71E5FF" stop-opacity=".52"/><stop offset=".58" stop-color="#2A73E8" stop-opacity=".12"/><stop offset="1" stop-color="#0B0C45" stop-opacity="0"/>
  </radialGradient>
  <linearGradient id="u" x1="134" y1="106" x2="372" y2="390" gradientUnits="userSpaceOnUse">
    <stop offset="0" stop-color="#FFFFFF"/><stop offset=".34" stop-color="#EAF7FF"/><stop offset=".68" stop-color="#B9D4FF"/><stop offset="1" stop-color="#7C8AFF"/>
  </linearGradient>
  <linearGradient id="gold" x1="140" y1="126" x2="368" y2="380" gradientUnits="userSpaceOnUse">
    <stop offset="0" stop-color="#FFF3A0"/><stop offset=".44" stop-color="#FFC72A"/><stop offset="1" stop-color="#E58B00"/>
  </linearGradient>
  <filter id="shadow" x="-30%" y="-30%" width="160%" height="180%">
    <feGaussianBlur in="SourceAlpha" stdDeviation="12"/><feOffset dy="14"/><feComponentTransfer><feFuncA type="linear" slope=".45"/></feComponentTransfer><feMerge><feMergeNode/><feMergeNode in="SourceGraphic"/></feMerge>
  </filter>
</defs>
<rect width="512" height="512" rx="104" fill="url(#bg)"/>
<rect width="512" height="512" rx="104" fill="url(#glow)"/>
<ellipse cx="256" cy="422" rx="152" ry="30" fill="#050A3A" opacity=".34"/>
<!-- main U silhouette/shadow -->
<path d="M134 126V258c0 89 50 140 122 140s122-51 122-140V126" fill="none" stroke="#080A45" stroke-width="104" stroke-linecap="round" stroke-linejoin="round" opacity=".60" transform="translate(0 11)"/>
<g id="LauncherSafeForeground" filter="url(#shadow)">
  <path d="M134 126V258c0 89 50 140 122 140s122-51 122-140V126" fill="none" stroke="url(#u)" stroke-width="94" stroke-linecap="round" stroke-linejoin="round"/>
  <path d="M134 126V258c0 89 50 140 122 140s122-51 122-140V126" fill="none" stroke="url(#gold)" stroke-width="16" stroke-linecap="round" stroke-linejoin="round" opacity=".96"/>
  <path d="M142 125V250" fill="none" stroke="#FFFFFF" stroke-width="10" stroke-linecap="round" opacity=".62"/>
  <circle cx="256" cy="348" r="18" fill="#FFFFFF" opacity=".96"/>
  <circle cx="256" cy="348" r="9" fill="#FFC72A"/>
</g>
</svg>
