<svg xmlns="http://www.w3.org/2000/svg" width="432" height="432" viewBox="0 0 432 432">
<defs>
  <linearGradient id="u" x1="120" y1="78" x2="312" y2="352" gradientUnits="userSpaceOnUse">
    <stop offset="0" stop-color="#FFFFFF"/><stop offset=".38" stop-color="#EAF7FF"/><stop offset=".74" stop-color="#BCD4FF"/><stop offset="1" stop-color="#7E8DFF"/>
  </linearGradient>
  <linearGradient id="gold" x1="120" y1="86" x2="312" y2="344" gradientUnits="userSpaceOnUse">
    <stop offset="0" stop-color="#FFF5AB"/><stop offset=".46" stop-color="#FFC72A"/><stop offset="1" stop-color="#E58B00"/>
  </linearGradient>
  <filter id="shadow" x="-35%" y="-35%" width="170%" height="190%">
    <feGaussianBlur in="SourceAlpha" stdDeviation="7"/><feOffset dy="8"/><feComponentTransfer><feFuncA type="linear" slope=".38"/></feComponentTransfer><feMerge><feMergeNode/><feMergeNode in="SourceGraphic"/></feMerge>
  </filter>
</defs>
<!-- Large, simple foreground: no nested scaling, so Android masks keep the U crisp. -->
<g id="AdaptiveSafeZone" filter="url(#shadow)" transform="translate(216 216) scale(0.82) translate(-216 -216)">
  <path d="M126 101V218c0 78 37 120 90 120s90-42 90-120V101" fill="none" stroke="#080A45" stroke-width="84" stroke-linecap="round" stroke-linejoin="round" opacity=".55" transform="translate(0 8)"/>
  <path d="M126 101V218c0 78 37 120 90 120s90-42 90-120V101" fill="none" stroke="url(#u)" stroke-width="74" stroke-linecap="round" stroke-linejoin="round"/>
  <path d="M126 101V218c0 78 37 120 90 120s90-42 90-120V101" fill="none" stroke="url(#gold)" stroke-width="13" stroke-linecap="round" stroke-linejoin="round"/>
  <path d="M133 100V216" fill="none" stroke="#FFFFFF" stroke-width="8" stroke-linecap="round" opacity=".62"/>
  <circle cx="216" cy="296" r="15" fill="#FFFFFF"/><circle cx="216" cy="296" r="7" fill="#FFC72A"/>
</g>
</svg>
