<svg xmlns="http://www.w3.org/2000/svg" width="512" height="512" viewBox="0 0 512 512"><defs><linearGradient id="gold" x1="0" y1="0" x2="1" y2="1"><stop stop-color="#fff4a8"/><stop offset=".45" stop-color="#ffd64e"/><stop offset="1" stop-color="#f49b20"/></linearGradient><linearGradient id="glass" x1="0" y1="0" x2="1" y2="1"><stop stop-color="#fff" stop-opacity=".62"/><stop offset=".35" stop-color="#bff4ff" stop-opacity=".18"/><stop offset="1" stop-color="#73cfff" stop-opacity=".05"/></linearGradient><linearGradient id="bg" x1="0" y1="0" x2="0" y2="1"><stop stop-color="#0c345f"/><stop offset=".46" stop-color="#0b6d94"/><stop offset="1" stop-color="#08243c"/></linearGradient></defs><rect x="8" y="8" width="496" height="496" rx="62" fill="url(#bg)"/><path d="M60 8H160L310 504H212Z" fill="#a5efff" opacity=".07"/><path d="M292 8H378L350 504H271Z" fill="#c9fbff" opacity=".05"/><g transform="translate(120 290)"><ellipse cy="126" rx="55" ry="14" fill="#001827" opacity=".28"/><rect x="-43" y="-94" width="86" height="206" rx="36" fill="#e7fbff" fill-opacity=".07" stroke="#e6fbff" stroke-width="7"/><rect x="-27" y="-110" width="54" height="24" rx="8" fill="#dff9ff" fill-opacity=".08" stroke="#edfdff" stroke-width="6"/><rect x="-33" y="43" width="66" height="58" rx="20" fill="#ff4f66"/><rect x="-33" y="-16" width="66" height="60" fill="#ffb11f"/><rect x="-33" y="-75" width="66" height="60" rx="16" fill="#8d5cff"/><path d="M-22-70C-29-34-28 43-20 83" fill="none" stroke="#fff" stroke-opacity=".62" stroke-width="8" stroke-linecap="round"/></g><g transform="translate(264 273) rotate(-7)"><ellipse cy="126" rx="55" ry="14" fill="#001827" opacity=".28"/><rect x="-43" y="-94" width="86" height="206" rx="36" fill="#e7fbff" fill-opacity=".07" stroke="#e6fbff" stroke-width="7"/><rect x="-27" y="-110" width="54" height="24" rx="8" fill="#dff9ff" fill-opacity=".08" stroke="#edfdff" stroke-width="6"/><rect x="-33" y="43" width="66" height="58" rx="20" fill="#19c98b"/><rect x="-33" y="-16" width="66" height="60" fill="#20a9ff"/><rect x="-33" y="-75" width="66" height="60" rx="16" fill="#ff4f66"/><path d="M-22-70C-29-34-28 43-20 83" fill="none" stroke="#fff" stroke-opacity=".62" stroke-width="8" stroke-linecap="round"/></g><g transform="translate(404 292)"><ellipse cy="126" rx="55" ry="14" fill="#001827" opacity=".28"/><rect x="-43" y="-94" width="86" height="206" rx="36" fill="#e7fbff" fill-opacity=".07" stroke="#e6fbff" stroke-width="7"/><rect x="-27" y="-110" width="54" height="24" rx="8" fill="#dff9ff" fill-opacity=".08" stroke="#edfdff" stroke-width="6"/><rect x="-33" y="43" width="66" height="58" rx="20" fill="#ffb11f"/><rect x="-33" y="-16" width="66" height="60" fill="#8d5cff"/><rect x="-33" y="-75" width="66" height="60" rx="16" fill="#19c98b"/><path d="M-22-70C-29-34-28 43-20 83" fill="none" stroke="#fff" stroke-opacity=".62" stroke-width="8" stroke-linecap="round"/></g><path d="M246 151C278 112 325 105 367 132" fill="none" stroke="#1fd3ff" stroke-width="18" stroke-linecap="round"/><path d="M246 151C278 112 325 105 367 132" fill="none" stroke="#d5fbff" stroke-width="5" stroke-linecap="round"/></svg>